<svg width="128" height="128" xmlns="http://www.w3.org/2000/svg">
 <g>
  <title>Icon</title>
  <rect id="svg_6" height="0.465116" width="0" y="294.622093" x="260.465116" stroke-width="1.5" stroke="#fff" fill="#25dd25"/>
  <g id="svg_13">
   <path fill="#007200" stroke="#494949" stroke-width="1.5" d="m23.999999,14l0,100l80,0l0,-85l-15,-15l-65,0" id="svg_1"/>
   <text xml:space="preserve" text-anchor="start" font-family="Helvetica, Arial, sans-serif" font-size="24" id="svg_3" y="48.008112" x="37.111448" stroke-width="0" stroke="#000000" fill="#ffffff">XML</text>
   <path id="svg_9" d="m75.261507,93.857494l-1.6291,-5.280668c0.477423,-0.387857 0.92553,-0.802863 1.348509,-1.246959l5.697661,1.508762c0.600966,-0.81062 1.118174,-1.671662 1.580939,-2.565671l-4.240266,-3.800995c0.203114,-0.558514 0.379006,-1.126723 0.504644,-1.712387l5.714412,-1.32647c0.041879,-0.488699 0.081664,-0.979338 0.081664,-1.479673s-0.041879,-0.989034 -0.081664,-1.477734l-5.714412,-1.32647c-0.127731,-0.585663 -0.303624,-1.153873 -0.504644,-1.712387l4.24236,-3.800995c-0.464859,-0.89207 -0.982066,-1.755051 -1.583033,-2.565671l-5.697661,1.506823c-0.420886,-0.442157 -0.871087,-0.857163 -1.348509,-1.246959l1.6291,-5.278728c-0.875275,-0.554635 -1.807086,-1.035577 -2.772401,-1.464159l-4.104158,3.928987c-0.600966,-0.18811 -1.21659,-0.349071 -1.848965,-0.467367l-1.430174,-5.294243c-0.529771,-0.036846 -1.057449,-0.075632 -1.59769,-0.075632s-1.067919,0.038786 -1.595596,0.075632l-1.432268,5.294243c-0.632375,0.118296 -1.245905,0.279257 -1.848965,0.467367l-4.104158,-3.928987c-0.963221,0.434399 -1.892938,0.913402 -2.768213,1.469977l1.6291,5.278728c-0.477423,0.387857 -0.927624,0.804802 -1.346415,1.24502l-5.699755,-1.508762c-0.600966,0.81062 -1.118174,1.673601 -1.580939,2.567611l4.24236,3.800995c-0.20102,0.558514 -0.376913,1.126723 -0.504644,1.712387l-5.716506,1.32647c-0.039785,0.488699 -0.081664,0.979338 -0.081664,1.477734s0.041879,0.989034 0.081664,1.479673l5.716506,1.32647c0.127731,0.585663 0.303624,1.153873 0.504644,1.712387l-4.24236,3.800995c0.462765,0.89207 0.979973,1.755051 1.580939,2.565671l5.699755,-1.508762c0.418792,0.444096 0.868993,0.857163 1.346415,1.246959l-1.6291,5.280668c0.875275,0.554635 1.807086,1.033638 2.770307,1.464159l4.104158,-3.928987c0.60306,0.18811 1.21659,0.35101 1.848965,0.467367l1.432268,5.292303c0.527678,0.038786 1.057449,0.075632 1.59769,0.075632s1.067919,-0.038786 1.59769,-0.075632l1.430174,-5.292303c0.632375,-0.118296 1.247999,-0.281196 1.848965,-0.467367l4.104158,3.928987c0.961127,-0.434399 1.892938,-0.913402 2.768213,-1.468037zm-11.751294,-9.310498c-3.93036,0 -7.117364,-2.951589 -7.117364,-6.591623s3.187005,-6.589684 7.117364,-6.589684s7.11527,2.94965 7.11527,6.589684s-3.184911,6.591623 -7.11527,6.591623zm32.439603,13.778606c0.039785,-1.060788 -0.125638,-2.140968 -0.48161,-3.207574l2.604884,-3.438349c-0.393664,-0.678749 -0.837583,-1.322591 -1.342227,-1.908255l-4.44338,0.862981c-0.896214,-0.705899 -1.915972,-1.256655 -3.006924,-1.65033l-1.279409,-4.031769c-0.808268,-0.131871 -1.627006,-0.203625 -2.456213,-0.205564l-2.039515,3.754452c-0.584214,0.104721 -1.168429,0.248228 -1.742173,0.451853c-0.538147,0.19005 -1.040697,0.426642 -1.522308,0.684567l-4.20048,-1.588273c-0.621906,0.508092 -1.189368,1.056909 -1.702388,1.652269l1.89922,3.816509c-0.542335,0.959945 -0.91506,1.993583 -1.086764,3.073764l-3.959675,2.05564c0.039785,0.752442 0.159141,1.504884 0.343409,2.259265l4.405688,1.006488c0.483704,1.016184 1.132831,1.925708 1.918066,2.701421l-0.737073,4.146187c0.670067,0.446035 1.382013,0.830013 2.12118,1.16357l3.591139,-2.559854c1.122362,0.273439 2.297072,0.37816 3.480159,0.290892l3.040428,3.116428c0.418792,-0.110539 0.835489,-0.228835 1.247999,-0.374282c0.366443,-0.127993 0.711946,-0.279257 1.057449,-0.43246l0.077476,-4.198548c0.952751,-0.657417 1.765207,-1.448644 2.41224,-2.338775l4.525044,-0.259864c0.318282,-0.696203 0.584214,-1.419555 0.770577,-2.162301l-3.494816,-2.680089zm-8.717149,3.892141c-2.514844,0.888192 -5.329124,-0.279257 -6.290251,-2.608336s0.299436,-4.937415 2.81428,-5.827546c2.514844,-0.888192 5.333312,0.279257 6.294439,2.608336c0.959033,2.329079 -0.303624,4.937415 -2.818468,5.827546z" stroke-width="1.5" stroke="#000000" fill="#ffffff"/>
   <line stroke-linecap="null" stroke-linejoin="null" id="svg_10" y2="28.905897" x2="89.417698" y1="14.905897" x1="89.417698" stroke-width="1.5" stroke="#494949" fill="none"/>
   <line stroke-linecap="null" stroke-linejoin="null" id="svg_11" y2="28.906686" x2="88.619581" y1="28.906686" x1="103.32792" stroke-width="1.5" stroke="#494949" fill="none"/>
  </g>
 </g>
</svg>